<svg xmlns="http://www.w3.org/2000/svg" width="150" height="50" viewBox="0,0,150,50"><path d="M13 26 C93 21,87 45,137 19" stroke="#999" fill="none"/><path d="M17 37 C95 31,88 26,143 24" stroke="#444" fill="none"/><path fill="#333" d="M124.03 40.29L124.04 40.31L124.07 40.34Q121.17 36.53 118.55 27.89L118.54 27.88L118.59 27.93Q117.74 25.60 116.94 23.46L117.11 23.63L114.16 32.33L114.21 32.39Q112.43 37.34 110.03 40.57L109.86 40.41L109.94 40.48Q109.17 40.63 107.53 40.78L107.46 40.71L107.38 40.63Q107.57 39.53 107.57 38.27L107.51 38.20L107.59 38.29Q107.49 32.18 104.75 26.05L104.76 26.06L104.92 26.21Q101.77 19.29 95.91 14.31L95.96 14.36L95.84 14.25Q97.93 14.89 100.29 15.42L100.30 15.42L100.40 15.53Q109.04 23.94 110.34 34.91L110.23 34.80L110.40 34.97Q112.04 31.66 113.49 26.29L113.33 26.14L113.40 26.20Q115.39 18.71 115.88 17.31L115.98 17.40L118.08 17.26L118.12 17.30Q118.81 19.32 119.46 21.64L119.45 21.63L120.81 26.19L120.67 26.05Q122.33 31.60 123.74 34.83L123.79 34.88L123.60 34.70Q125.46 23.26 133.38 15.92L133.19 15.73L133.38 15.92Q134.81 15.48 137.78 14.84L137.73 14.78L137.81 14.87Q132.52 19.21 129.48 25.34L129.38 25.25L129.45 25.32Q126.25 31.44 126.25 38.22L126.39 38.36L126.36 38.33Q126.29 39.36 126.36 40.50L126.35 40.49L125.33 40.50L125.27 40.44Q124.66 40.36 124.09 40.36ZM130.38 43.30L130.39 43.31L130.27 43.19Q129.13 39.73 129.25 35.85L129.24 35.84L129.28 35.88Q129.63 24.35 139.00 16.09L138.83 15.92L138.91 16.00Q137.90 16.18 135.96 16.71L136.00 16.75L136.08 16.83Q136.97 15.93 138.87 14.14L138.79 14.06L138.89 14.16Q136.12 14.81 133.19 15.31L133.33 15.45L133.26 15.38Q125.85 22.59 123.95 32.07L123.91 32.03L123.90 32.02Q123.35 30.40 120.49 18.95L120.40 18.85L120.45 18.90Q120.09 19.03 119.13 19.03L119.02 18.92L118.79 17.93L118.82 17.96Q118.67 17.39 118.44 16.89L118.50 16.96L115.55 16.89L115.57 16.92Q114.61 19.24 113.34 24.36L113.43 24.45L113.50 24.52Q112.10 29.51 111.11 31.98L111.20 32.08L111.25 32.13Q109.67 24.23 104.11 17.91L103.98 17.77L104.04 17.84Q103.47 17.69 102.52 17.50L102.58 17.56L102.63 17.61Q101.84 16.70 100.28 15.07L100.35 15.13L100.29 15.07Q96.92 14.30 94.75 13.50L94.71 13.45L94.68 13.43Q100.43 18.19 103.70 24.39L103.77 24.45L103.80 24.48Q107.14 30.98 107.14 37.99L107.21 38.06L107.25 38.10Q107.10 39.51 106.91 41.11L106.91 41.11L107.03 41.23Q107.14 41.11 107.60 41.02L107.69 41.11L107.73 41.15Q108.21 41.08 108.44 41.08L108.40 41.04L108.36 42.03L108.40 42.07Q108.37 42.49 108.45 43.03L108.39 42.97L108.41 42.99Q109.56 42.92 111.84 42.77L111.95 42.88L111.78 42.71Q115.55 37.46 118.29 28.05L118.14 27.90L118.12 27.88Q121.04 36.81 124.00 40.77L123.96 40.72L123.96 40.72Q124.47 40.78 125.31 40.89L125.30 40.88L125.29 40.88Q126.15 41.92 127.22 42.99L127.10 42.88L127.11 42.89Q127.99 43.04 130.38 43.30Z"/><path fill="#333" d="M30.94 29.50L30.95 29.51L31.00 29.56Q29.79 28.77 29.15 28.81L29.10 28.76L29.01 28.67Q27.80 28.91 26.75 29.92L26.65 29.82L26.69 29.86Q25.56 30.78 25.67 32.15L25.73 32.21L25.84 32.32Q26.06 36.58 25.19 41.11L25.23 41.14L25.16 41.08Q22.91 41.49 21.80 42.02L21.90 42.13L21.83 42.05Q23.45 38.00 23.22 33.55L23.12 33.45L23.13 33.46Q22.87 28.92 21.15 24.85L21.24 24.94L21.22 24.92Q22.30 25.54 24.58 26.19L24.57 26.17L25.17 28.90L25.23 28.96Q25.96 26.12 30.22 26.12L30.09 25.98L30.12 26.02Q30.46 25.90 30.76 25.90L30.89 26.03L30.85 25.98Q32.05 25.89 33.31 26.58L33.31 26.57L33.31 26.57Q32.04 27.97 30.90 29.46ZM32.53 31.47L32.66 31.44L32.55 31.34Q33.45 30.18 35.12 27.74L35.27 27.89L35.11 27.73Q34.72 27.45 33.20 27.19L33.26 27.25L33.30 27.30Q33.51 26.86 33.97 26.25L34.07 26.35L34.05 26.33Q32.08 25.35 30.14 25.54L30.27 25.67L30.26 25.66Q28.16 25.70 27.44 25.96L27.58 26.11L27.55 26.07Q26.18 26.53 25.38 27.63L25.34 27.59L25.07 26.67L24.92 25.88L25.01 25.97Q22.51 25.45 20.53 24.11L20.64 24.22L20.44 24.03Q22.71 28.54 22.94 33.41L22.94 33.41L22.98 33.45Q23.04 38.20 21.29 42.73L21.30 42.74L21.34 42.78Q22.40 42.27 23.27 41.97L23.41 42.11L23.23 41.93Q23.11 43.17 22.61 44.24L22.57 44.20L22.56 44.19Q25.49 43.43 27.62 43.31L27.54 43.23L27.78 38.75L27.70 38.67Q27.89 36.50 27.89 34.25L27.95 34.31L27.85 34.22Q27.94 33.12 28.85 32.15L28.73 32.03L28.73 32.03Q29.60 31.02 30.74 30.94L30.72 30.92L30.82 31.02Q31.48 30.92 32.20 31.60L32.10 31.50L32.62 31.56ZM27.60 29.74L27.59 29.66L27.58 29.76L27.58 29.72Z"/><path fill="#222" d="M48.26 14.39L48.15 14.27L48.21 14.34Q51.99 16.86 56.75 17.09L56.73 17.07L56.82 17.16Q61.37 17.26 65.64 15.51L65.55 15.42L65.65 15.52Q65.44 16.11 64.68 18.89L64.55 18.76L64.70 18.91Q61.98 19.96 59.01 20.11L58.92 20.02L58.85 19.95Q55.90 20.12 53.01 19.40L53.11 19.50L53.14 19.53Q53.67 22.99 53.86 26.65L54.02 26.81L53.83 26.61Q55.92 26.92 57.52 26.88L57.47 26.83L57.59 26.95Q58.69 26.83 61.09 26.71L61.25 26.88L61.24 26.87Q61.17 27.49 61.17 28.17L61.02 28.02L61.21 29.54L61.08 29.41Q58.67 29.40 53.87 29.47L53.99 29.60L53.94 29.54Q53.87 33.59 53.30 37.59L53.30 37.59L53.32 37.60Q55.95 36.96 58.69 37.07L58.63 37.02L58.73 37.11Q61.37 37.12 63.95 37.96L64.04 38.05L64.02 38.02Q64.04 38.76 64.30 39.52L64.36 39.58L64.74 41.03L64.75 41.03Q61.65 39.84 58.22 39.84L58.28 39.90L58.10 39.72Q53.41 39.90 49.14 42.14L49.13 42.13L49.01 42.01Q51.38 35.24 51.11 28.13L51.13 28.14L51.07 28.08Q50.80 20.93 48.14 14.26ZM48.52 42.73L48.60 42.82L48.52 42.74Q49.74 41.98 50.50 41.63L50.66 41.80L50.67 41.81Q50.47 42.55 49.90 44.08L49.88 44.06L49.81 43.99Q54.29 41.96 59.35 42.23L59.39 42.26L59.33 42.20Q64.68 42.68 68.68 45.38L68.56 45.27L68.49 45.19Q67.39 42.73 66.71 40.79L66.75 40.83L66.67 40.75Q65.77 40.23 64.78 39.88L64.76 39.87L64.83 39.94Q64.40 38.52 64.25 37.72L64.28 37.75L64.11 37.58Q61.15 36.71 57.99 36.71L57.97 36.69L57.97 36.69Q56.77 36.64 55.63 36.75L55.74 36.86L55.74 36.86Q55.83 35.58 55.87 34.36L55.82 34.32L55.88 31.78L55.84 31.75Q57.79 31.79 59.57 31.83L59.44 31.69L59.55 31.80Q61.32 31.78 63.11 31.93L63.08 31.91L63.13 31.96Q63.08 31.03 63.08 30.08L63.14 30.14L62.99 28.09L62.28 28.25L62.32 28.29Q61.76 28.23 61.31 28.23L61.47 28.39L61.44 28.36Q61.32 27.56 61.47 26.26L61.58 26.37L61.59 26.38Q60.02 26.63 58.84 26.67L58.71 26.55L58.68 26.52Q57.76 26.55 55.94 26.48L56.01 26.55L56.04 26.58Q55.81 25.02 55.62 22.20L55.64 22.22L55.64 22.22Q56.68 22.34 57.67 22.34L57.82 22.49L57.75 22.42Q62.55 22.51 66.24 20.60L66.17 20.53L66.06 20.42Q66.80 18.23 67.68 16.02L67.63 15.98L67.67 16.01Q66.25 16.76 65.41 17.11L65.40 17.09L65.35 17.04Q65.76 16.39 66.21 14.83L66.12 14.73L66.09 14.70Q61.56 16.95 56.69 16.65L56.61 16.56L56.68 16.64Q51.35 16.29 47.50 13.43L47.45 13.38L47.61 13.55Q50.40 20.41 50.71 28.02L50.72 28.04L50.68 28.00Q51.14 36.07 48.63 42.85Z"/><path fill="#444" d="M87.94 30.00L87.89 29.96L87.84 29.90Q85.30 29.76 83.96 30.98L83.98 30.99L83.87 30.88Q82.68 32.25 82.99 34.76L82.89 34.66L83.00 34.77Q83.22 37.20 84.44 38.46L84.41 38.43L84.49 38.51Q85.56 39.84 87.69 39.76L87.64 39.72L87.76 39.83Q88.31 39.81 88.50 39.81L88.35 39.67L88.43 39.74Q92.00 39.16 92.11 34.56L92.02 34.47L92.14 34.59Q92.22 32.23 91.53 31.43L91.43 31.33L91.41 31.30Q90.39 30.06 87.84 29.90ZM91.20 41.67L91.21 41.69L91.11 41.59Q89.92 42.30 88.36 42.22L88.25 42.11L88.24 42.10Q84.55 42.45 83.26 39.86L83.09 39.69L83.24 39.85Q82.90 45.03 81.57 49.29L81.74 49.46L81.70 49.42Q79.79 49.80 78.16 50.52L78.17 50.54L78.28 50.65Q80.78 44.62 80.51 37.65L80.56 37.70L80.53 37.67Q80.30 30.85 77.41 24.80L77.33 24.72L77.32 24.71Q79.36 25.99 81.07 26.44L81.10 26.47L81.60 27.93L81.60 27.93Q81.56 28.11 81.82 29.21L81.84 29.23L81.86 29.25Q82.88 27.19 86.46 27.00L86.44 26.98L86.58 27.12Q87.46 27.09 88.34 27.09L88.26 27.01L88.71 26.97L88.83 27.09Q88.82 26.96 89.01 27.00L89.13 27.12L89.38 27.06L89.46 27.14Q91.39 27.28 92.11 27.51L92.22 27.62L92.21 27.61Q93.77 28.15 94.65 29.10L94.50 28.95L94.55 29.00Q95.43 30.22 95.39 31.63L95.29 31.53L95.45 31.69Q95.30 34.40 94.50 37.06L94.48 37.04L94.64 37.20Q93.43 40.52 91.07 41.55ZM95.40 42.22L95.52 42.30L95.44 42.23Q96.56 40.26 96.86 36.14L96.91 36.20L96.78 36.06Q97.07 34.45 97.07 33.19L96.92 33.04L97.07 33.20Q97.02 31.62 96.26 30.21L96.34 30.29L96.34 30.29Q95.80 29.72 95.31 29.34L95.25 29.28L95.09 29.00L94.97 28.78L94.96 28.65L94.89 28.58Q93.17 26.55 88.83 26.55L88.83 26.55L88.27 26.61L88.36 26.69Q83.54 26.52 81.90 28.12L82.08 28.29L82.02 28.23Q81.72 27.59 81.56 27.09L81.65 27.17L81.47 26.20L81.47 26.20Q78.92 25.51 76.71 24.03L76.68 23.99L76.66 23.98Q79.96 30.32 80.27 37.56L80.16 37.45L80.24 37.53Q80.46 44.72 77.61 51.19L77.59 51.17L79.68 50.41L79.69 50.41Q79.33 51.05 78.65 52.61L78.63 52.60L78.72 52.69Q81.45 51.65 83.78 51.31L83.74 51.27L83.65 51.18Q84.87 46.46 85.02 42.73L84.97 42.68L85.00 42.71Q86.47 44.26 90.09 44.49L89.97 44.37L90.05 44.45Q93.96 44.67 95.41 42.23L95.39 42.21ZM89.76 32.17L89.73 32.13L89.82 32.22Q90.49 32.17 91.59 32.51L91.55 32.47L91.42 32.34Q91.76 33.41 91.73 34.59L91.73 34.59L91.67 34.54Q91.79 35.56 91.60 36.21L91.59 36.20L91.56 36.17Q90.81 39.04 88.29 39.34L88.23 39.28L88.37 39.31L88.36 39.30Q88.30 39.31 88.18 39.34L88.17 39.33L87.65 39.34L87.73 39.42Q86.59 39.46 85.60 38.97L85.55 38.92L85.21 36.87L85.17 36.83Q85.10 34.58 86.39 33.56L86.34 33.50L86.36 33.52Q87.32 32.39 89.72 32.13Z"/></svg>