<?xml version="1.0" standalone="no"?>
<!DOCTYPE svg PUBLIC "-//W3C//DTD SVG 1.0//EN" "http://www.w3.org/TR/2001/REC-SVG-20010904/DTD/svg10.dtd">
<svg xmlns="http://www.w3.org/2000/svg" xmlns:xlink="http://www.w3.org/1999/xlink" id="body_1" width="170" height="114">

<g transform="matrix(1.4166667 0 0 1.425 0 0)">
	<g transform="matrix(2 0 0 2 0 0)">
		<g transform="matrix(0.16562068 0 0 0.16562068 6.7904487 16.976967)">
            <path d="M238.077 14.382L238.077 36.294L245.10399 36.294L245.10399 21.705L270.679 21.705L270.679 36.294L277.701 36.294L277.701 14.42L238.077 14.382zM244.321 7.294L271.341 7.294C 275.094 6.5480003 277.885 3.236 278.672 0.032000065L278.672 0.032000065L236.991 0.032000065C 237.77 3.237 240.60199 6.548 244.321 7.294zM216.795 36.308C 220.338 34.806 222.244 32.208 222.974 29.168L222.974 29.168L191.457 29.168L191.477 0.049999237L184.412 0.06999923L184.412 36.308L216.795 36.308zM131.874 7.196L156.82799 7.196C 160.58998 6.103 163.749 3.237 164.51898 0.059999943L164.51898 0.059999943L124.87898 0.059999943L124.87898 21.475L157.32298 21.475L157.32298 28.99L131.87398 29.01C 127.88598 30.122 124.503975 32.8 122.81698 36.337L122.81698 36.337L124.878975 36.299004L164.29398 36.299004L164.29398 14.355L131.87398 14.355L131.87398 7.196zM70.27098 7.265L97.28198 7.265C 101.039986 6.516 103.832985 3.2069998 104.61598 0L104.61598 0L62.937 0C 63.715 3.207 66.549 6.516 70.271 7.265M70.271 21.587L97.282005 21.587C 101.04001 20.846 103.83301 17.534 104.616005 14.325L104.616005 14.325L62.937 14.325C 63.715 17.535 66.549 20.846 70.271 21.587M70.271 36.304L97.282005 36.304C 101.04001 35.557 103.83301 32.246002 104.616005 29.041L104.616005 29.041L62.937 29.041C 63.715 32.247 66.549 35.557 70.271 36.304M0 0.088C 0.812 3.255 3.554 6.4919996 7.316 7.303L7.316 7.303L18.686 7.303L19.266 7.532L19.266 36.223L26.366001 36.223L26.366001 7.532L27.011002 7.303L38.391003 7.303C 42.195004 6.323 44.878002 3.255 45.676003 0.08799982L45.676003 0.08799982L45.676003 0.01799982L0 0.01799982L0 0.08799982" stroke="none" fill="#000000" fill-rule="nonzero" />
		</g>
	</g>
</g>
</svg>